<svg width="131" height="30" viewBox="0 0 131 30" fill="none" xmlns="http://www.w3.org/2000/svg">
<path d="M32.7515 25.7143C32.7515 26.8571 32.2057 27.8571 31.1139 28.7143C30.0222 29.5714 28.7486 30 27.2929 30H2C0.895432 30 0 29.1046 0 28V9.54394C0 8.92997 0.282007 8.35002 0.764923 7.97086L2.26804 6.79072C3.31559 5.96825 2.734 4.28571 1.40215 4.28571C0.627766 4.28571 0 3.65795 0 2.88356V2C0 0.89543 0.895431 0 2 0H27.2929C28.7486 0 30.0222 0.428571 31.1139 1.28571C32.2057 2.14286 32.7515 3.14286 32.7515 4.28571V25.7143ZM24.5131 25.7143C25.6177 25.7143 26.5131 24.8189 26.5131 23.7143V6.28571C26.5131 5.18114 25.6177 4.28571 24.5131 4.28571H8.23838C7.13381 4.28571 6.23838 5.18114 6.23838 6.28571V25.2747C6.23838 26.9432 8.1611 27.8782 9.47346 26.8478L10.3734 26.1412C10.7257 25.8646 11.1606 25.7143 11.6085 25.7143H24.5131Z" fill="#F5DEB3"/>
<path d="M50.2757 2.89796C50.2757 4.00253 49.3802 4.89796 48.2757 4.89796H46.8171C45.7125 4.89796 44.8171 4.00253 44.8171 2.89796V2C44.8171 0.89543 45.7125 0 46.8171 0H48.2757C49.3802 0 50.2757 0.895431 50.2757 2V2.89796ZM50.2757 28C50.2757 29.1046 49.3802 30 48.2757 30H46.8171C45.7125 30 44.8171 29.1046 44.8171 28V12.6052C44.8171 11.9912 45.0991 11.4112 45.582 11.0321L47.0406 9.8869C48.353 8.85652 50.2757 9.79146 50.2757 11.46V28Z" fill="#F5DEB3"/>
<path d="M88.4827 25.7143C88.4827 26.898 87.9369 27.9184 86.8451 28.7755C85.8054 29.5918 84.5317 30 83.0241 30H66.6484C65.1408 30 63.8411 29.5918 62.7494 28.7755C61.7097 27.9184 61.1898 26.898 61.1898 25.7143V12.8571C61.1898 11.6735 61.7097 10.6735 62.7494 9.85714C63.8411 9 65.1408 8.57143 66.6484 8.57143H83.0241C84.5317 8.57143 85.8054 9 86.8451 9.85714C87.9369 10.6735 88.4827 11.6735 88.4827 12.8571V25.7143ZM81.0241 26.3265C82.1287 26.3265 83.0241 25.4311 83.0241 24.3265V14.2449C83.0241 13.1403 82.1287 12.2449 81.0241 12.2449H68.6484C67.5438 12.2449 66.6484 13.1403 66.6484 14.2449V24.3265C66.6484 25.4311 67.5438 26.3265 68.6484 26.3265H81.0241Z" fill="#F5DEB3"/>
<path d="M131 28C131 29.1046 130.105 30 129 30H100.248C99.1439 30 98.2485 29.1046 98.2485 28V25.7684C98.2485 25.1545 98.5305 24.5745 99.0134 24.1954L119.821 7.85879C121.315 6.68564 120.485 4.28571 118.586 4.28571H100.248C99.1439 4.28571 98.2485 3.39028 98.2485 2.28571V2C98.2485 0.89543 99.1439 0 100.248 0H129C130.105 0 131 0.895431 131 2V4.291C131 4.90599 130.717 5.48679 130.233 5.86587L109.444 22.1394C107.947 23.3113 108.775 25.7143 110.676 25.7143H129C130.105 25.7143 131 26.6097 131 27.7143V28Z" fill="#F5DEB3"/>
</svg>
